<svg xmlns="http://www.w3.org/2000/svg" viewBox="0 0 300 400" width="300" height="400">
  <defs>
    <linearGradient id="bg" gradientUnits="userSpaceOnUse" x1="150" y1="0" x2="150" y2="400">
      <stop offset="0" stop-color="#101824"/>
      <stop offset="1" stop-color="#07090d"/>
    </linearGradient>
    <radialGradient id="glow" gradientUnits="userSpaceOnUse" cx="150" cy="170" r="210">
      <stop offset="0" stop-color="#5b987e" stop-opacity="0.55"/>
      <stop offset="0.55" stop-color="#5b987e" stop-opacity="0.12"/>
      <stop offset="1" stop-color="#5b987e" stop-opacity="0"/>
    </radialGradient>
    <linearGradient id="stone" gradientUnits="userSpaceOnUse" x1="150" y1="80" x2="150" y2="400">
      <stop offset="0" stop-color="#76ad95"/>
      <stop offset="1" stop-color="#274236"/>
    </linearGradient>
  </defs>
  <rect x="0" y="0" width="300" height="400" fill="url(#bg)"/>
  <rect x="0" y="0" width="300" height="400" fill="url(#glow)"/>

  <path d="M20 400 L30 300 L100 270 L200 270 L270 300 L280 400 Z" fill="url(#stone)"/>
  <path d="M100 110 L200 104 L214 170 L206 250 L150 268 L94 250 L86 170 Z" fill="url(#stone)"/>
  <path d="M100 110 L118 150 L106 190 M200 104 L190 140 L208 170 M150 268 L148 236" fill="none" stroke="#1b2e26" stroke-width="3" stroke-linecap="round" stroke-linejoin="round"/>
  <path d="M112 164 L140 160 L138 176 L114 180 Z" fill="#1a1612"/>
  <path d="M188 164 L160 160 L162 176 L186 180 Z" fill="#1a1612"/>
  <path d="M118 168 L134 166 L134 174 L120 176 Z" fill="#30ffa5"/>
  <path d="M182 168 L166 166 L166 174 L180 176 Z" fill="#30ffa5"/>
  <circle cx="150" cy="212" r="22" fill="#30ffa5" opacity="0.25"/>
  <path d="M150 196 L150 228 M138 204 L162 220 M162 204 L138 220" fill="none" stroke="#60ffba" stroke-width="4" stroke-linecap="round" stroke-linejoin="round"/>
  <path d="M60 320 L90 340 M240 320 L210 340 M120 300 L130 330" fill="none" stroke="#1b2e26" stroke-width="3" stroke-linecap="round" stroke-linejoin="round"/>

  <path d="M96 110 L86 70 L112 100 Z M122 96 L118 52 L138 92 Z M162 92 L182 52 L178 96 Z M188 100 L214 70 L204 110 Z" fill="#e0518f" stroke="#1a1208" stroke-width="2"/>
  <circle cx="150" cy="330" r="22" fill="#a34ce5" opacity="0.55"/><circle cx="150" cy="330" r="10" fill="#ffffff" opacity="0.6"/>
</svg>
