<svg xmlns="http://www.w3.org/2000/svg" viewBox="0 0 300 400" width="300" height="400">
  <defs>
    <linearGradient id="bg" gradientUnits="userSpaceOnUse" x1="150" y1="0" x2="150" y2="400">
      <stop offset="0" stop-color="#06161a"/>
      <stop offset="1" stop-color="#07090d"/>
    </linearGradient>
    <radialGradient id="glow" gradientUnits="userSpaceOnUse" cx="150" cy="170" r="210">
      <stop offset="0" stop-color="#558e8b" stop-opacity="0.55"/>
      <stop offset="0.55" stop-color="#558e8b" stop-opacity="0.12"/>
      <stop offset="1" stop-color="#558e8b" stop-opacity="0"/>
    </radialGradient>
    <radialGradient id="bone" gradientUnits="userSpaceOnUse" cx="140" cy="150" r="110">
      <stop offset="0" stop-color="#d7f2f0"/>
      <stop offset="0.7" stop-color="#8dbab8"/>
      <stop offset="1" stop-color="#44716f"/>
    </radialGradient>
  </defs>
  <rect x="0" y="0" width="300" height="400" fill="url(#bg)"/>
  <rect x="0" y="0" width="300" height="400" fill="url(#glow)"/>

  <path d="M96 300 Q120 280 150 282 Q180 280 204 300 L220 400 L80 400 Z" fill="#274240"/>
  <path d="M108 320 L108 400" fill="none" stroke="#8dbab8" stroke-width="6" stroke-linecap="round" stroke-linejoin="round"/>
  <path d="M129 320 L129 400" fill="none" stroke="#8dbab8" stroke-width="6" stroke-linecap="round" stroke-linejoin="round"/>
  <path d="M150 320 L150 400" fill="none" stroke="#8dbab8" stroke-width="6" stroke-linecap="round" stroke-linejoin="round"/>
  <path d="M171 320 L171 400" fill="none" stroke="#8dbab8" stroke-width="6" stroke-linecap="round" stroke-linejoin="round"/>
  <path d="M192 320 L192 400" fill="none" stroke="#8dbab8" stroke-width="6" stroke-linecap="round" stroke-linejoin="round"/>
  <path d="M92 170 Q92 88 150 84 Q208 88 208 170 Q208 208 188 222 L184 250 L116 250 L112 222 Q92 208 92 170 Z" fill="url(#bone)"/>
  <ellipse cx="124" cy="172" rx="19" ry="22" fill="#090f0e"/>
  <ellipse cx="176" cy="172" rx="19" ry="22" fill="#090f0e"/>
  <circle cx="124" cy="176" r="5" fill="#2afff4"/>
  <circle cx="176" cy="176" r="5" fill="#2afff4"/>
  <path d="M150 196 L140 220 L160 220 Z" fill="#1a1612"/>
  <path d="M118 250 L182 250 L178 286 Q150 296 122 286 Z" fill="url(#bone)"/>
  <path d="M124.0 250 L124.0 270" fill="none" stroke="#1b2e2d" stroke-width="2" stroke-linecap="round" stroke-linejoin="round"/>
  <path d="M134.5 250 L134.5 270" fill="none" stroke="#1b2e2d" stroke-width="2" stroke-linecap="round" stroke-linejoin="round"/>
  <path d="M145.0 250 L145.0 270" fill="none" stroke="#1b2e2d" stroke-width="2" stroke-linecap="round" stroke-linejoin="round"/>
  <path d="M155.5 250 L155.5 270" fill="none" stroke="#1b2e2d" stroke-width="2" stroke-linecap="round" stroke-linejoin="round"/>
  <path d="M166.0 250 L166.0 270" fill="none" stroke="#1b2e2d" stroke-width="2" stroke-linecap="round" stroke-linejoin="round"/>
  <path d="M176.5 250 L176.5 270" fill="none" stroke="#1b2e2d" stroke-width="2" stroke-linecap="round" stroke-linejoin="round"/>
  <path d="M150 86 L142 108 L154 122 L146 140" fill="none" stroke="#39605e" stroke-width="2.5" stroke-linecap="round" stroke-linejoin="round"/>

  <path d="M96 110 L86 70 L112 100 Z M122 96 L118 52 L138 92 Z M162 92 L182 52 L178 96 Z M188 100 L214 70 L204 110 Z" fill="#e05158" stroke="#1a1208" stroke-width="2"/>
  <path d="M40 330 Q150 300 260 330" fill="none" stroke="#dd4ce5" stroke-width="6"/><circle cx="80" cy="321" r="6" fill="#dd4ce5"/><circle cx="150" cy="315" r="6" fill="#dd4ce5"/><circle cx="220" cy="321" r="6" fill="#dd4ce5"/>
</svg>
