<svg xmlns="http://www.w3.org/2000/svg" viewBox="0 0 300 400" width="300" height="400">
  <defs>
    <linearGradient id="bg" gradientUnits="userSpaceOnUse" x1="150" y1="0" x2="150" y2="400">
      <stop offset="0" stop-color="#101824"/>
      <stop offset="1" stop-color="#050b0a"/>
    </linearGradient>
    <radialGradient id="glow" gradientUnits="userSpaceOnUse" cx="150" cy="170" r="210">
      <stop offset="0" stop-color="#59c8b2" stop-opacity="0.55"/>
      <stop offset="0.55" stop-color="#59c8b2" stop-opacity="0.12"/>
      <stop offset="1" stop-color="#59c8b2" stop-opacity="0"/>
    </radialGradient>
    <linearGradient id="mist" gradientUnits="userSpaceOnUse" x1="150" y1="60" x2="150" y2="400">
      <stop offset="0" stop-color="#9ae0d2" stop-opacity="0.9"/>
      <stop offset="1" stop-color="#2a6a5d" stop-opacity="0"/>
    </linearGradient>
    <radialGradient id="void" gradientUnits="userSpaceOnUse" cx="150" cy="180" r="80">
      <stop offset="0" stop-color="#000000"/>
      <stop offset="1" stop-color="#0a201b"/>
    </radialGradient>
  </defs>
  <rect x="0" y="0" width="300" height="400" fill="url(#bg)"/>
  <rect x="0" y="0" width="300" height="400" fill="url(#glow)"/>

  <path d="M60 400 Q70 300 80 240 Q70 120 150 70 Q230 120 220 240 Q230 300 240 400 Q220 360 200 390 Q180 350 160 392 Q140 352 120 392 Q100 356 84 394 Z" fill="url(#mist)"/>
  <path d="M104 200 Q100 130 150 116 Q200 130 196 200 Q194 250 150 268 Q106 250 104 200 Z" fill="url(#void)"/>
  <circle cx="128" cy="186" r="14" fill="#b8fff0" opacity="0.25"/>
  <circle cx="172" cy="186" r="14" fill="#b8fff0" opacity="0.25"/>
  <ellipse cx="128" cy="186" rx="7" ry="4" fill="#dffff8"/>
  <ellipse cx="172" cy="186" rx="7" ry="4" fill="#dffff8"/>
  <path d="M40 300 Q20 250 50 220" fill="none" stroke="#9ae0d2" stroke-width="4" stroke-linecap="round" stroke-linejoin="round" opacity="0.4"/>
  <path d="M260 300 Q280 250 250 220" fill="none" stroke="#9ae0d2" stroke-width="4" stroke-linecap="round" stroke-linejoin="round" opacity="0.4"/>

  <path d="M110 110 L96 70 L80 60 M96 70 L100 44 M190 110 L204 70 L220 60 M204 70 L200 44" fill="none" stroke="#e0516e" stroke-width="7" stroke-linecap="round" stroke-linejoin="round"/>
  <path d="M100 300 L110 280 L120 300 M140 290 L160 290 M150 280 L150 300 M180 300 L190 280 L200 300" fill="none" stroke="#c64ce5" stroke-width="4" stroke-linecap="round" stroke-opacity="0.85"/>
</svg>
