<svg xmlns="http://www.w3.org/2000/svg" viewBox="0 0 300 400" width="300" height="400">
  <defs>
    <linearGradient id="bg" gradientUnits="userSpaceOnUse" x1="150" y1="0" x2="150" y2="400">
      <stop offset="0" stop-color="#101824"/>
      <stop offset="1" stop-color="#07090d"/>
    </linearGradient>
    <radialGradient id="glow" gradientUnits="userSpaceOnUse" cx="150" cy="170" r="210">
      <stop offset="0" stop-color="#90aff0" stop-opacity="0.55"/>
      <stop offset="0.55" stop-color="#90aff0" stop-opacity="0.12"/>
      <stop offset="1" stop-color="#90aff0" stop-opacity="0"/>
    </radialGradient>
    <linearGradient id="body" gradientUnits="userSpaceOnUse" x1="150" y1="60" x2="150" y2="400">
      <stop offset="0" stop-color="#d0daf0"/>
      <stop offset="1" stop-color="#37435c"/>
    </linearGradient>
  </defs>
  <rect x="0" y="0" width="300" height="400" fill="url(#bg)"/>
  <rect x="0" y="0" width="300" height="400" fill="url(#glow)"/>

  <path d="M150 250 C100 180 40 150 10 170 C30 200 20 240 40 270 C20 300 40 340 70 360 C90 320 120 290 150 280 Z" fill="#bfc7d8" opacity="0.8"/>
  <path d="M150 250 C200 180 260 150 290 170 C270 200 280 240 260 270 C280 300 260 340 230 360 C210 320 180 290 150 280 Z" fill="#bfc7d8" opacity="0.8"/>
  <path d="M60 400 L80 310 L118 280 L182 280 L220 310 L240 400 Z" fill="url(#body)"/>
  <path d="M150 280 L150 400" fill="none" stroke="#2e4c8a" stroke-width="10"/>
  <circle cx="150" cy="186" r="52" fill="#c4cee3"/>
  <path d="M98 186 C98 140 202 140 202 186 L202 160 C190 118 110 118 98 160 Z" fill="#90a2c8"/>
  <path d="M120 186 L142 190 L140 198 L120 194 Z" fill="#1a1612"/>
  <path d="M180 186 L158 190 L160 198 L180 194 Z" fill="#1a1612"/>
  <circle cx="130" cy="192" r="4" fill="#ff5a4a"/>
  <circle cx="170" cy="192" r="4" fill="#ff5a4a"/>
  <ellipse cx="150" cy="112" rx="56" ry="12" fill="none" stroke="#3a77f2" stroke-width="5" stroke-opacity="0.6"/>
  <path d="M138 222 L162 222" fill="none" stroke="#1a2f59" stroke-width="4" stroke-linecap="round"/>

  <path d="M96 110 L86 70 L112 100 Z M122 96 L118 52 L138 92 Z M162 92 L182 52 L178 96 Z M188 100 L214 70 L204 110 Z" fill="#e0b051" stroke="#1a1208" stroke-width="2"/>
  <path d="M40 330 Q150 300 260 330" fill="none" stroke="#e54c7f" stroke-width="6"/><circle cx="80" cy="321" r="6" fill="#e54c7f"/><circle cx="150" cy="315" r="6" fill="#e54c7f"/><circle cx="220" cy="321" r="6" fill="#e54c7f"/>
</svg>
