<svg xmlns="http://www.w3.org/2000/svg" viewBox="0 0 300 400" width="300" height="400">
  <defs>
    <linearGradient id="bg" gradientUnits="userSpaceOnUse" x1="150" y1="0" x2="150" y2="400">
      <stop offset="0" stop-color="#101824"/>
      <stop offset="1" stop-color="#05070b"/>
    </linearGradient>
    <radialGradient id="glow" gradientUnits="userSpaceOnUse" cx="150" cy="170" r="210">
      <stop offset="0" stop-color="#5980c8" stop-opacity="0.55"/>
      <stop offset="0.55" stop-color="#5980c8" stop-opacity="0.12"/>
      <stop offset="1" stop-color="#5980c8" stop-opacity="0"/>
    </radialGradient>
    <linearGradient id="mist" gradientUnits="userSpaceOnUse" x1="150" y1="60" x2="150" y2="400">
      <stop offset="0" stop-color="#9ab2e0" stop-opacity="0.9"/>
      <stop offset="1" stop-color="#2a406a" stop-opacity="0"/>
    </linearGradient>
    <radialGradient id="void" gradientUnits="userSpaceOnUse" cx="150" cy="180" r="80">
      <stop offset="0" stop-color="#000000"/>
      <stop offset="1" stop-color="#0a1120"/>
    </radialGradient>
  </defs>
  <rect x="0" y="0" width="300" height="400" fill="url(#bg)"/>
  <rect x="0" y="0" width="300" height="400" fill="url(#glow)"/>

  <path d="M60 400 Q70 300 80 240 Q70 120 150 70 Q230 120 220 240 Q230 300 240 400 Q220 360 200 390 Q180 350 160 392 Q140 352 120 392 Q100 356 84 394 Z" fill="url(#mist)"/>
  <path d="M104 200 Q100 130 150 116 Q200 130 196 200 Q194 250 150 268 Q106 250 104 200 Z" fill="url(#void)"/>
  <circle cx="128" cy="186" r="14" fill="#b8d0ff" opacity="0.25"/>
  <circle cx="172" cy="186" r="14" fill="#b8d0ff" opacity="0.25"/>
  <ellipse cx="128" cy="186" rx="7" ry="4" fill="#dfeaff"/>
  <ellipse cx="172" cy="186" rx="7" ry="4" fill="#dfeaff"/>
  <path d="M40 300 Q20 250 50 220" fill="none" stroke="#9ab2e0" stroke-width="4" stroke-linecap="round" stroke-linejoin="round" opacity="0.4"/>
  <path d="M260 300 Q280 250 250 220" fill="none" stroke="#9ab2e0" stroke-width="4" stroke-linecap="round" stroke-linejoin="round" opacity="0.4"/>

  <ellipse cx="150" cy="72" rx="62" ry="14" fill="none" stroke="#e0ae51" stroke-width="6" stroke-opacity="0.8"/>
  <circle cx="150" cy="330" r="22" fill="#e54c82" opacity="0.55"/><circle cx="150" cy="330" r="10" fill="#ffffff" opacity="0.6"/>
</svg>
