<svg xmlns="http://www.w3.org/2000/svg" viewBox="0 0 300 400" width="300" height="400">
  <defs>
    <linearGradient id="bg" gradientUnits="userSpaceOnUse" x1="150" y1="0" x2="150" y2="400">
      <stop offset="0" stop-color="#101824"/>
      <stop offset="1" stop-color="#07090d"/>
    </linearGradient>
    <radialGradient id="glow" gradientUnits="userSpaceOnUse" cx="150" cy="170" r="210">
      <stop offset="0" stop-color="#6ad6e0" stop-opacity="0.55"/>
      <stop offset="0.55" stop-color="#6ad6e0" stop-opacity="0.12"/>
      <stop offset="1" stop-color="#6ad6e0" stop-opacity="0"/>
    </radialGradient>
    <linearGradient id="body" gradientUnits="userSpaceOnUse" x1="150" y1="60" x2="150" y2="400">
      <stop offset="0" stop-color="#bfebef"/>
      <stop offset="1" stop-color="#2a646a"/>
    </linearGradient>
  </defs>
  <rect x="0" y="0" width="300" height="400" fill="url(#bg)"/>
  <rect x="0" y="0" width="300" height="400" fill="url(#glow)"/>
  <path d="M150 260 C100 200 40 190 12 210 C40 240 30 280 60 300 Z M150 260 C200 200 260 190 288 210 C260 240 270 280 240 300 Z" fill="#e54cd8" opacity="0.45"/>

  <path d="M20 400 L50 290 L110 262 L190 262 L250 290 L280 400 Z" fill="url(#body)"/>
  <path d="M70 290 L60 200 L96 262 Z M230 290 L240 200 L204 262 Z M150 262 L140 214 L162 214 Z" fill="#c7faff" opacity="0.85"/>
  <path d="M96 150 L150 108 L204 150 L196 226 L150 256 L104 226 Z" fill="url(#body)" stroke="#183739" stroke-width="3"/>
  <path d="M110 118 L96 58 L130 110 Z M190 118 L204 58 L170 110 Z" fill="#e7fdff"/>
  <path d="M96 150 L150 190 L204 150 M150 190 L150 256" fill="none" stroke="#183739" stroke-width="3" stroke-linejoin="round"/>
  <path d="M118 166 L140 172 L134 182 Z" fill="#ff5a4a"/>
  <path d="M182 166 L160 172 L166 182 Z" fill="#ff5a4a"/>
  <path d="M130 226 L138 246 L146 228 L154 246 L162 228 L170 246" fill="none" stroke="#e9fdff" stroke-width="3" stroke-linejoin="round"/>

  <path d="M84 200 C80 120 110 70 150 66 C190 70 220 120 216 200 C200 150 180 120 150 118 C120 120 100 150 84 200 Z" fill="#e05d51" opacity="0.9"/>
</svg>
