<svg xmlns="http://www.w3.org/2000/svg" viewBox="0 0 300 400" width="300" height="400">
  <defs>
    <linearGradient id="bg" gradientUnits="userSpaceOnUse" x1="150" y1="0" x2="150" y2="400">
      <stop offset="0" stop-color="#1c1622"/>
      <stop offset="1" stop-color="#0a070d"/>
    </linearGradient>
    <radialGradient id="glow" gradientUnits="userSpaceOnUse" cx="150" cy="170" r="210">
      <stop offset="0" stop-color="#47288c" stop-opacity="0.55"/>
      <stop offset="0.55" stop-color="#47288c" stop-opacity="0.12"/>
      <stop offset="1" stop-color="#47288c" stop-opacity="0"/>
    </radialGradient>
    <radialGradient id="slime" gradientUnits="userSpaceOnUse" cx="140" cy="240" r="150">
      <stop offset="0" stop-color="#7d5dcb"/>
      <stop offset="0.7" stop-color="#3f267c"/>
      <stop offset="1" stop-color="#190f31"/>
    </radialGradient>
  </defs>
  <rect x="0" y="0" width="300" height="400" fill="url(#bg)"/>
  <rect x="0" y="0" width="300" height="400" fill="url(#glow)"/>
  <path d="M126 180 Q116 120 104 90" fill="none" stroke="#55389c" stroke-width="10" stroke-linecap="round" stroke-linejoin="round"/>
  <path d="M174 180 Q184 120 196 90" fill="none" stroke="#55389c" stroke-width="10" stroke-linecap="round" stroke-linejoin="round"/>
  <circle cx="104" cy="88" r="13" fill="#cebff1"/>
  <circle cx="196" cy="88" r="13" fill="#cebff1"/>
  <circle cx="106" cy="90" r="6" fill="#0d081a"/>
  <circle cx="194" cy="90" r="6" fill="#0d081a"/>
  <path d="M30 400 Q20 300 70 250 Q110 170 150 168 Q200 170 236 250 Q284 300 270 400 Z" fill="url(#slime)"/>
  <ellipse cx="150" cy="260" rx="26" ry="20" fill="#160f2b"/>
  <ellipse cx="150" cy="262" rx="16" ry="10" fill="#36286c"/>
  <circle cx="110" cy="220" r="8" fill="#cebff1" opacity="0.5"/>
  <circle cx="196" cy="300" r="12" fill="#cebff1" opacity="0.3"/>
  <circle cx="90" cy="320" r="6" fill="#cebff1" opacity="0.4"/>
  <path d="M90 360 Q150 380 210 360" fill="none" stroke="#2d185c" stroke-width="4" stroke-linecap="round" stroke-linejoin="round"/>

</svg>
